<svg xmlns="http://www.w3.org/2000/svg" viewBox="0 0 213.51 70"><defs><style>.cls-1{isolation:isolate;}.cls-2{fill:#1f313c;}.cls-3{fill:#f2f3f5;}.cls-4{fill:#4489d9;}.cls-5,.cls-6{fill:#73ca3b;}.cls-6{mix-blend-mode:multiply;}.cls-7{fill:#67b8ec;}.cls-8{fill:#93defb;}</style></defs><title>Colored H</title><g class="cls-1"><g id="Layer_2" data-name="Layer 2"><g id="Layer_2-2" data-name="Layer 2"><path class="cls-2" d="M105.43,36.64,98.51,47.75,106,58.24h-4.07L95,48V58.24H91.39V36.64H95V47.45l6.44-10.81Z"/><path class="cls-2" d="M109.33,58.24l7.56-21.57h3.49l7.5,21.57h-3.63l-1.56-4.49h-8.11L113,58.24Zm6.07-6.86h6.44l-3.19-9.32Z"/><path class="cls-2" d="M135.3,58.24h-3.57V36.64h3.57Z"/><path class="cls-2" d="M153.89,36.64v2.85L143.61,54.93l-.59.46h10.87v2.85H139.53V55.39L149.82,40l.61-.46h-10.9V36.64Z"/><path class="cls-2" d="M161.75,39.31v6.8h9v2.4h-9v7.06h9.93v2.67h-13.5V36.64h13.5v2.67Z"/><path class="cls-2" d="M191.35,36.64v21.6h-3.57l-8.47-14.89V58.24h-3.57V36.64h3.57l8.47,14.89V36.64Z"/><path class="cls-2" d="M213.51,46.84a15.93,15.93,0,0,1-.57,4.56,11.29,11.29,0,0,1-1.45,3.16,7.41,7.41,0,0,1-2,2,10.25,10.25,0,0,1-2.13,1.09,8.52,8.52,0,0,1-1.87.47,11.83,11.83,0,0,1-1.26.11h-8.18V36.64h6.51a12.29,12.29,0,0,1,4.79.87,9.76,9.76,0,0,1,3.42,2.3,9.44,9.44,0,0,1,2,3.26A10.86,10.86,0,0,1,213.51,46.84Zm-10.43,8.82q3.58,0,5.16-2.29c1.06-1.52,1.58-3.73,1.58-6.62a10.82,10.82,0,0,0-.32-2.66,5.66,5.66,0,0,0-1.24-2.39A6.52,6.52,0,0,0,205.75,40a10.75,10.75,0,0,0-4.1-.66H199.6V55.66Z"/><path class="cls-2" d="M94.19,25.58H91.84V11.18H96a5.69,5.69,0,0,1,1.82.3,4.76,4.76,0,0,1,1.61.88,4.49,4.49,0,0,1,1.15,1.41,3.88,3.88,0,0,1,.44,1.87,5,5,0,0,1-.37,2,4.19,4.19,0,0,1-1,1.49,4.64,4.64,0,0,1-1.6.94,6.26,6.26,0,0,1-2.08.33H94.19Zm0-12.62v5.7h2.15a2.47,2.47,0,0,0,.84-.14A2.29,2.29,0,0,0,98,18a2.33,2.33,0,0,0,.56-.93,4.22,4.22,0,0,0,.22-1.47,3.57,3.57,0,0,0-.1-.81,2.33,2.33,0,0,0-1.25-1.59A3.28,3.28,0,0,0,95.94,13Z"/><path class="cls-2" d="M115.66,11.18l-4.28,8.54v5.86H109V19.91l-4.06-8.73h2.67l2.48,6.45h.22L113,11.18Z"/><path class="cls-2" d="M130.63,11.18v1.61h-4.3V25.58H124V12.79h-4.3V11.18Z"/><path class="cls-2" d="M146.42,11.18v14.4h-2.35V19.09h-6.23v6.49h-2.38V11.18h2.38v6.31h6.23V11.18Z"/><path class="cls-2" d="M163.75,18.31a10.15,10.15,0,0,1-.46,3.21,6.6,6.6,0,0,1-1.27,2.3,5.33,5.33,0,0,1-1.89,1.39,6,6,0,0,1-2.38.47,5.93,5.93,0,0,1-2.37-.47,5.46,5.46,0,0,1-1.9-1.39,6.43,6.43,0,0,1-1.26-2.3,10.15,10.15,0,0,1-.46-3.21,10,10,0,0,1,.46-3.19,6.52,6.52,0,0,1,1.26-2.3,5.59,5.59,0,0,1,1.9-1.39,5.77,5.77,0,0,1,2.37-.48,5.85,5.85,0,0,1,2.38.48A5.46,5.46,0,0,1,162,12.82a6.7,6.7,0,0,1,1.27,2.3A10,10,0,0,1,163.75,18.31Zm-6.06,5.45a3.41,3.41,0,0,0,1.38-.28,3,3,0,0,0,1.17-.93,4.51,4.51,0,0,0,.81-1.69,10,10,0,0,0,.32-2.55,10.3,10.3,0,0,0-.31-2.49,5.19,5.19,0,0,0-.78-1.69,3,3,0,0,0-1.13-1,3.09,3.09,0,0,0-1.34-.3,3.44,3.44,0,0,0-1.38.28,3,3,0,0,0-1.17.92,5,5,0,0,0-.81,1.69,10.06,10.06,0,0,0-.31,2.54,9.89,9.89,0,0,0,.3,2.5,4.91,4.91,0,0,0,.78,1.69,3,3,0,0,0,2.47,1.26Z"/><path class="cls-2" d="M179.46,11.18v14.4h-2.38l-5.65-9.92v9.92h-2.38V11.18h2.38l5.65,9.93V11.18Z"/><path class="cls-2" d="M187.36,25.58H185V11.18h4.14a5.69,5.69,0,0,1,1.82.3,4.76,4.76,0,0,1,1.61.88,4.49,4.49,0,0,1,1.15,1.41,3.88,3.88,0,0,1,.44,1.87,5,5,0,0,1-.37,2,4.06,4.06,0,0,1-1,1.49,4.55,4.55,0,0,1-1.6.94,6.24,6.24,0,0,1-2.07.33h-1.74Zm0-12.62v5.7h2.15a2.53,2.53,0,0,0,.85-.14,2.25,2.25,0,0,0,.77-.48,2.33,2.33,0,0,0,.56-.93,4.22,4.22,0,0,0,.22-1.47,3.57,3.57,0,0,0-.1-.81,2.25,2.25,0,0,0-.4-.88,2.32,2.32,0,0,0-.85-.71,3.26,3.26,0,0,0-1.44-.28Z"/><path class="cls-2" d="M209.85,11.18v14.4H207.5V19.09h-6.23v6.49h-2.38V11.18h2.38v6.31h6.23V11.18Z"/><circle class="cls-3" cx="35" cy="35" r="35"/><path class="cls-4" d="M62.58,48.67a18.21,18.21,0,0,1-9.09,2.16,18.21,18.21,0,0,1-9.09-2.16A19,19,0,0,0,35,46.44a19,19,0,0,0-9.4,2.23,18.21,18.21,0,0,1-9.09,2.16,18.21,18.21,0,0,1-9.09-2.16A20.33,20.33,0,0,0,2,46.77c.1.27.19.53.3.8a35,35,0,0,0,65.34,0c.11-.27.2-.53.3-.8A20.33,20.33,0,0,0,62.58,48.67Z"/><path class="cls-5" d="M59.24,54.87c0,1.57-2.34,2.57-5.2,3.75-1.71.7-3.56,2.2-6,2.68-2,.38-4.26-.26-6.58-.06-2.07.17-4.21,1.21-6.47,1.21s-4.4-1-6.47-1.21c-2.31-.2-4.61.44-6.58.06-2.43-.48-4.28-2-6-2.68-2.87-1.18-5.21-2.18-5.21-3.75S13.1,52.3,16,51.13c1.71-.7,3.56-2.21,6-2.68,2-.38,4.26.26,6.58.06,2.07-.17,4.21-1.22,6.47-1.22s4.4,1.05,6.47,1.22c2.31.2,4.61-.44,6.58-.06,2.43.47,4.28,2,6,2.68C56.9,52.3,59.24,53.31,59.24,54.87Z"/><path class="cls-6" d="M18.53,54c0,1.26,7.37,3.68,16.47,3.68S51.47,55.28,51.47,54,44.1,50.89,35,50.89,18.53,52.76,18.53,54Z"/><path class="cls-2" d="M52.36,49.56c0,2.92-3.29,7.14-18.28,7.14-10.47,0-16.44-3.73-16.44-7.14,0-5.59,7.49-9.23,16.72-9.23S52.36,42,52.36,49.56Z"/><path class="cls-2" d="M18.93,35.93c0,2.85,7.47,4.4,15.72,4.4s16.42-2,16.42-4.4C51.07,31.53,43.62,31,35,31,26.75,31,18.93,31.53,18.93,35.93Z"/><path class="cls-2" d="M30.89,29.64c0,1.95,1.79,1.21,4.54,1.21s3.68-3.14,3.68-5.09-.42-2.55-3.11-2C33.57,24.29,30.89,27.69,30.89,29.64Z"/><path class="cls-2" d="M27.91,20.05c0,2.45,2.82,3.52,7.13,3.52s7.05-1.64,7.05-5.52c0-3.62-2.62-4.05-6.92-4.05S27.91,17.6,27.91,20.05Z"/><path class="cls-2" d="M32.73,11.53A2.13,2.13,0,0,0,35,13.86a2.41,2.41,0,0,0,2.27-2.67c0-1.42-.05-3.11-1.47-3.11S32.73,10.11,32.73,11.53Z"/><path class="cls-7" d="M62.58,55.92a18.21,18.21,0,0,1-9.09,2.16,18.21,18.21,0,0,1-9.09-2.16A19,19,0,0,0,35,53.69a19,19,0,0,0-9.4,2.23,18.21,18.21,0,0,1-9.09,2.16,18.21,18.21,0,0,1-9.09-2.16l-.73-.35q.46.65,1,1.26a35,35,0,0,0,54.7,0q.49-.61,1-1.26Z"/><path class="cls-8" d="M44.4,63.17A19,19,0,0,0,35,60.94a19,19,0,0,0-9.4,2.23,18,18,0,0,1-8.1,2.14l1.17.65a35,35,0,0,0,32.66,0l1.17-.65A18,18,0,0,1,44.4,63.17Z"/></g></g></g></svg>